<svg version="1.1" width="3072" height="4096"
  viewBox="280 1250 1650 2050"
  xmlns="http://www.w3.org/2000/svg">

  <!-- Konsistente Vektoren:
       w    = (-186, 97)    — Breitenschritt (Schrägkante)
       h_up = (-1025, -643) — Höhe nach oben-links
       h_dn = (2, 991)      — Höhe nach unten
       fr   = (276, 165)    — Vorderkante rechts
       dn   = (0, 655)      — Vorderkante unten
  -->

  <!-- Hauptform (path25) -->
  <path d="M 1407.55,889.27
           L 2429.0,1567.57
           L 2421.83,2573.08
           L 2080.27,2800.77
           L 2081.86,2694.89
           C 2435.18,2569.34 2398.63,2185.23 2158.95,2274.43
           L 2152.72,2228.35
           C 2456.74,2033.53 2329.69,1628.32 1931.41,1880.41
           L 890.87,1237.98 Z"
    fill="#000000"/>

  <!-- Fläche 3 (oben-rechts) -->
  <polygon points="828,1326 1853,1969 1667,2066 641,1423"
    fill="#000000"/>

  <!-- Fläche 4 (unten-rechts) -->
  <polygon points="1853,1969 1667,2066 1669,3057 1855,2960"
    fill="#000000"/>

  <!-- Fläche 1 (oben-links) -->
  <polygon points="502,1456 316,1553 1341,2196 1527,2099"
    fill="#000000"/>

  <!-- Fläche 2 (unten-links) -->
  <polygon points="1527,2099 1341,2196 1343,3187 1529,3090"
    fill="#000000"/>

  <!-- Fläche 6 (vorne-links) -->
  <polygon points="340,2018 616,2183 616,2838 340,2673"
    fill="#000000"/>

  <!-- Fläche 5 (vorne-rechts) -->
  <polygon points="913,2382 1189,2547 1189,3202 913,3037"
    fill="#000000"/>

</svg>