<?xml version="1.0" encoding="utf-8"?>
<svg xmlns="http://www.w3.org/2000/svg" viewBox="0 0 500 500">
  <g transform="translate(-100.443, -110.868) scale(1.4584)">
    <g fill="#b52f1a">
      <path transform="rotate(75, 325.7, 249.27)"
        d="M 324.825 198.819 C 330.67 201.855 344.824 219.232 348.899 220.168 C 358.053 222.272 367.684 218.72 377.061 219.259 C 394.566 220.265 395.801 224.91 400.474 240.835 C 403.562 251.359 404.52 259.263 398.239 268.057 C 386.315 284.752 340.244 316.961 333.882 297.466 C 318.586 250.596 295.136 290.625 286.89 290.268 C 278.604 289.91 288.352 293.925 256.153 252.266 C 242.658 234.807 247.554 223.864 267.434 206.976 C 278.72 197.389 308.83 190.511 324.825 198.819 Z" />
      <path transform="rotate(75, 154.15, 214.45)"
        d="M 165.819 168.319 C 181.143 172.314 178.174 171.432 197.584 176.619 C 212.406 180.58 202.39 214.096 193.902 220.706 C 170.75 238.735 177.217 265.062 158.271 260.489 C 143.507 256.926 134.376 255.011 127.552 242.937 C 120.375 230.24 100.933 216.648 103.63 199.79 C 107.748 174.051 119.906 187.361 136.367 180.657 C 140.052 179.156 158.443 166.396 165.819 168.319 Z" />
      <path transform="rotate(75, 247.65, 163.45)"
        d="M 252.743 110.564 C 273.063 124.137 274.155 125.177 287.801 142.271 C 293.437 149.332 303.263 158.744 299.587 167.377 C 297.113 173.187 282.565 185.806 275.97 198.657 C 270.141 210.016 255.542 224.797 234.04 221.445 C 203.071 216.617 183.725 190.696 202.106 161.388 C 208.542 151.126 213.468 147.597 213.168 133.636 C 212.592 106.831 234.325 98.261 252.743 110.564 Z" />
      <path transform="rotate(75, 250.3, 336.35)"
        d="M 288.079 280.893 C 292.613 287.494 296.048 297.644 296.658 301.734 C 298.692 315.361 292.71 315.008 287.799 325.782 C 281.745 339.064 279.726 342.501 280.143 350.793 C 280.673 361.335 284.608 366.361 283.689 376.606 C 282.853 385.922 279.266 398.333 270.098 398.611 C 255.668 399.049 236.384 396.054 226.76 383.644 C 205.523 356.257 205.748 366.777 205.024 358.341 C 204.8 355.729 210.333 342.293 203.822 315.077 C 202.042 307.637 222.729 307.16 236.811 295.744 C 246.71 287.719 274.471 261.081 288.079 280.893 Z" />
      <path transform="rotate(75, 165.3, 305.2)"
        d="M 178.405 286.866 C 199.385 309.557 210.725 296.59 216.286 311.877 C 220.799 324.283 203.575 340.635 195.779 345.173 C 185.017 351.437 166.938 343.867 155.787 345.011 C 145.718 346.044 118.262 358.888 114.175 342.824 C 109.885 325.963 133.518 302.908 138.139 289.6 C 141.683 279.396 137.549 259.723 142.005 260.947 C 162.105 266.468 162.685 269.864 178.405 286.866 Z" />
    </g>
    <path fill="#473c31"
      d="M 217.835 212.077 C 219.447 211.642 220.233 211.348 223.857 212.007 C 232.577 213.593 273.988 232.795 280.377 240.868 C 283.813 245.209 282.392 246.415 282.265 250.61 C 281.971 260.285 231.37 282.56 225.232 284.005 C 217.557 285.812 217.277 286.551 213.441 281.765 C 210.775 278.439 212.264 219.083 214.109 215.313 C 214.663 214.182 216.598 212.41 217.835 212.077 Z" />
  </g>
</svg>