<?xml version="1.0" encoding="utf-8"?>
<svg xmlns="http://www.w3.org/2000/svg" viewBox="0 0 500 500" xmlns:bx="https://boxy-svg.com">
  <defs>
    <bx:export>
      <bx:file format="svg" href="#object-0" />
      <bx:file format="png" href="#object-0" excluded="true" />
    </bx:export>
  </defs>
  <g transform="matrix(2.020514, 0, 0, 1.971181, -275.841866, -235.802162)" style="" id="object-0">
    <path style="fill: rgb(196, 56, 43); stroke: rgb(196, 56, 43);"
      d="M 284.521 228.439 C 295.241 214.551 411.792 248.9 337.796 332.912 C 330.584 341.1 314.796 336.88 305.076 331.921 C 289.104 323.772 265.79 306.584 263.352 288.82 C 261.472 275.122 281.582 279.415 286.608 265.008 C 291.51 250.956 276.486 238.848 284.521 228.439 Z" />
    <path style="fill: rgb(196, 56, 43); stroke: rgb(196, 56, 43);"
      d="M 260.505 221.466 C 261.491 226.732 270.956 230.645 271.94 226.976 C 274.979 201.587 328.256 218.349 335.857 222.459 C 382.498 231.56 320.978 128.276 277.784 142.918 C 262.286 147.454 241.535 175.471 251.355 195.724 C 262.123 217.933 257.783 209.855 260.505 221.466 Z" />
    <path style="fill: rgb(196, 56, 43); stroke: rgb(196, 56, 43);"
      d="M 234.246 229.055 C 238.201 233.98 253.673 219.031 251.61 216.488 C 222.021 169.459 254.052 160.016 244.667 153.851 C 221.419 136.734 168.448 163.382 179.11 197.417 C 179.75 207.866 223.379 204.584 234.246 229.055 Z" />
    <path style="fill: rgb(196, 56, 43); stroke: rgb(196, 56, 43);"
      d="M 247.099 280.852 C 246.355 279.405 212.67 276.907 228.487 244.981 C 237.15 225.028 182.113 208.876 175.313 216.753 C 116.595 271.962 227.672 362.545 236.009 296.265 C 243.209 280.84 254.271 294.803 247.099 280.852 Z" />
    <path style="fill: rgb(196, 56, 43); stroke: rgb(196, 56, 43);"
      d="M 251.117 294.294 C 262.026 297.97 256.192 309.158 284.253 329.447 C 289.004 332.882 289.046 334.561 286.827 337.249 C 272.313 355.821 195.719 360.615 234.291 323.675 C 240.293 317.927 240.861 291.392 251.117 294.294 Z" />
    <path style="fill: rgb(139, 85, 68); stroke: rgb(139, 85, 68);"
      d="M 260.015 273.237 C 281.495 272.573 284.972 248.82 265.359 235.237 C 251.344 225.531 248.491 231.178 241.075 240.767 C 224.95 258.374 236.18 273.088 260.015 273.237 Z" />
  </g>
</svg>