<svg
	version="1.0"
	xmlns="http://www.w3.org/2000/svg"
	viewBox="0 0 564.000000 442.000000"
	preserveAspectRatio="xMidYMid meet"
	width="1em"
	height="1em"
>
	<g
		transform="translate(0.000000,442.000000) scale(0.100000,-0.100000)"
		fill="#FFFFFF"
		stroke="none"
	>
		<path
			d="M1548 2578 l-3 -1033 -24 -53 c-49 -109 -156 -172 -292 -172 -163 0
-274 93 -310 258 -6 29 -16 52 -22 52 -7 0 -103 -14 -214 -32 l-203 -32 0 -27
c0 -51 40 -185 79 -264 89 -178 250 -311 446 -367 68 -20 102 -23 235 -22 141
0 162 3 235 27 239 80 400 241 483 482 l27 80 3 1068 3 1067 -220 0 -220 0 -3
-1032z"
		/>
		<path
			d="M4275 3538 c-56 -68 -561 -659 -647 -758 -21 -25 -85 -100 -141 -167
-73 -87 -108 -122 -124 -122 l-23 -1 0 305 0 305 -220 0 -220 0 0 -525 0 -525
332 -2 332 -3 178 -225 c98 -124 210 -265 248 -315 38 -49 161 -207 273 -350
l204 -260 283 -3 282 -2 -30 37 c-315 403 -670 858 -879 1126 l-263 338 83 97
c46 53 271 318 502 587 230 270 427 500 438 513 l20 22 -284 0 -284 0 -60 -72z"
		/>
		<path
			d="M2200 2240 l0 -860 605 0 605 0 0 220 0 220 -380 0 -380 0 0 640 0
640 -225 0 -225 0 0 -860z"
		/>
	</g>
</svg>